<svg id="Layer_1" data-name="Layer 1" xmlns="http://www.w3.org/2000/svg" viewBox="0 0 248.7 154.62"><defs><style>.cls-1{fill:#fff;}</style></defs><title>behance</title><rect class="cls-1" x="162.12" y="6.44" width="62.25" height="15.46"/><path class="cls-1" d="M251.35,115.62s7.33-66.46-52.46-66.46-57,53.23-57.33,64.56,8,52.93,53.33,52.93,54.94-29.54,54.94-36.18H220.28s-3.31,12.61-24.4,12.61c-26.09,0-25.15-27.46-25.15-27.46ZM197.12,73.33c23.25,0,24.19,23.19,24.19,23.19H171.42C171.42,89.51,177.16,73.33,197.12,73.33Z" transform="translate(-2.93 -13.04)"/><path class="cls-1" d="M105.78,84.69a33.76,33.76,0,0,0,17.7-21.94c3.5-13.25-.08-31.68-11.79-40a51.78,51.78,0,0,0-19.1-8.3c-.53-.12-9.72-1.57-9.72-1.37H2.93v154.6H82.87c25.77,0,46.76-15.9,46.76-46.66S105.78,84.69,105.78,84.69ZM38.59,39.91H71.78s22.13-2.46,22.13,16.68S73.64,74,73.64,74L38.59,74ZM73.64,140.8H38.59V99.71H71.78s25.28-3.19,25.28,19.08C97.06,143,73.64,140.8,73.64,140.8Z" transform="translate(-2.93 -13.04)"/></svg>