<svg id="Layer_1" data-name="Layer 1" xmlns="http://www.w3.org/2000/svg" viewBox="0 0 248.25 167.57"><defs><style>.cls-1{fill:#fff;}</style></defs><title>email</title><path class="cls-1" d="M4.64,196.91V59q0-.24.72-4.55L86.51,123.9,5.6,201.7A20.29,20.29,0,0,1,4.64,196.91Zm10.77-152a10.32,10.32,0,0,1,4.07-.72H238a13.56,13.56,0,0,1,4.31.72L161,114.56l-10.77,8.62-21.31,17.48-21.31-17.48-10.77-8.62ZM15.65,211l81.63-78.28,31.6,25.61,31.6-25.61L242.12,211a11.49,11.49,0,0,1-4.07.72H19.48A10.84,10.84,0,0,1,15.65,211ZM171.26,123.9l80.91-69.42a14.29,14.29,0,0,1,.72,4.55V196.91a18.35,18.35,0,0,1-.72,4.79Z" transform="translate(-4.64 -44.18)"/></svg>