<svg id="Layer_1" data-name="Layer 1" xmlns="http://www.w3.org/2000/svg" viewBox="0 0 153.93 177.34"><defs><style>.cls-1{fill:#d6708d;}.cls-2{fill:#fff;}</style></defs><title>github</title><path class="cls-1" d="M127.77,179.36l1.29,0h-2.57Z" transform="translate(-49.52 -2.02)"/><path class="cls-2" d="M159.92,167.1c-.15-7.34.18-30.44.18-30.44s-.16-12.83-7.48-19.33c.65.58,5.45-.72,6.44-.89,2.3-.4,4.58-.89,6.84-1.49A62.45,62.45,0,0,0,178.77,110c8.49-4.43,15.35-10.85,19.36-19.6a63.84,63.84,0,0,0,5.25-24.11c.47-12.24-1.1-23.54-11.14-34.37,0,0,5.86-13-1.25-29.84,0,0-14.23-2-30.91,11.62,0,0-25-8.54-55.87.09,0,0-17.57-13.14-30.71-11.58,0,0-6.7,12.17-1.44,29.81.19.65-4.44,6.05-4.89,6.8a41.47,41.47,0,0,0-5.84,15.87C58.87,71.84,62.92,90.17,75,102.93c0,0,9.36,11.27,36.66,14.52a23.39,23.39,0,0,0-7.06,14.92s-7.91,3.14-12.12,2.82-9.54,0-15.35-5.86c-2.69-2.71-4.3-6.08-6.66-9a25.18,25.18,0,0,0-8.59-6.89c-3.39-1.65-7.33-2.51-10.95-1.45a1.53,1.53,0,0,0-.79,2.79c1.48,1.91,3.65,3.13,5.58,4.57a31.27,31.27,0,0,1,10.37,14.16,23.21,23.21,0,0,0,11.3,12.32c5.59,2.87,11.76,3.58,18,3.48.55,0,8.88-.15,8.86-1.42l.25,21.08s-.46,4.44-4.19,5.31a111.92,111.92,0,0,0,30.44,4.64h3.22a111.9,111.9,0,0,0,31.2-4.87C163.06,173.52,160,171.95,159.92,167.1Z" transform="translate(-49.52 -2.02)"/></svg>